<?xml version="1.0" encoding="iso-8859-1"?>
<!-- Generator: Adobe Illustrator 19.0.0, SVG Export Plug-In . SVG Version: 6.00 Build 0)  -->
<svg version="1.1" id="Capa_1" xmlns="http://www.w3.org/2000/svg" xmlns:xlink="http://www.w3.org/1999/xlink" x="0px" y="0px"
	 viewBox="0 0 490 490" style="enable-background:new 0 0 490 490;" xml:space="preserve">
<g>
	<path d="M425.845,214.316L275.691,64.148l16.728-16.728L245,0l-47.419,47.419l18.296,18.296L65.723,215.884l-18.303-18.303L0,245
		l47.419,47.419l16.738-16.738L214.312,425.85l-16.731,16.731L245,490l47.419-47.42l-15.163-15.163L427.41,277.249l15.17,15.17
		L490,245l-47.419-47.42L425.845,214.316z M266.43,416.591L245,395.161l-19.862,19.862L74.984,264.855L94.839,245l-18.29-18.29
		L226.703,76.542L245,94.839l19.865-19.865l150.154,150.168L395.161,245l21.423,21.423L266.43,416.591z"/>
</g>
<g>
</g>
<g>
</g>
<g>
</g>
<g>
</g>
<g>
</g>
<g>
</g>
<g>
</g>
<g>
</g>
<g>
</g>
<g>
</g>
<g>
</g>
<g>
</g>
<g>
</g>
<g>
</g>
<g>
</g>
</svg>
