<?xml version="1.0" encoding="iso-8859-1"?>
<!-- Generator: Adobe Illustrator 19.0.0, SVG Export Plug-In . SVG Version: 6.00 Build 0)  -->
<svg version="1.1" id="Capa_1" xmlns="http://www.w3.org/2000/svg" xmlns:xlink="http://www.w3.org/1999/xlink" x="0px" y="0px"
	 viewBox="0 0 490 490" style="enable-background:new 0 0 490 490;" xml:space="preserve">
<g>
	<path d="M490,0H0v490h490V0z M159.275,86.603c38.093,0,68.972,30.879,68.972,68.971c0,38.093-30.879,68.972-68.972,68.972
		c-38.092,0-68.971-30.879-68.971-68.972C90.304,117.482,121.183,86.603,159.275,86.603z M159.502,403.875
		c-38.093,0-68.973-30.88-68.973-68.973c0-38.091,30.88-68.971,68.973-68.971c38.091,0,68.972,30.88,68.972,68.971
		C228.473,372.995,197.593,403.875,159.502,403.875z M330.498,86.603c38.092,0,68.973,30.879,68.973,68.971
		c0,38.093-30.88,68.972-68.973,68.972c-38.091,0-68.972-30.879-68.972-68.972C261.526,117.482,292.407,86.603,330.498,86.603z
		 M330.724,403.875c-38.092,0-68.972-30.88-68.972-68.973c0-38.091,30.879-68.971,68.972-68.971
		c38.092,0,68.972,30.88,68.972,68.971C399.696,372.995,368.817,403.875,330.724,403.875z"/>
</g>
<g>
</g>
<g>
</g>
<g>
</g>
<g>
</g>
<g>
</g>
<g>
</g>
<g>
</g>
<g>
</g>
<g>
</g>
<g>
</g>
<g>
</g>
<g>
</g>
<g>
</g>
<g>
</g>
<g>
</g>
</svg>
